<?xml version="1.0" encoding="utf-8"?>
<!-- Generator: Adobe Illustrator 23.0.0, SVG Export Plug-In . SVG Version: 6.00 Build 0)  -->
<svg version="1.1" id="Layer_1" xmlns="http://www.w3.org/2000/svg" xmlns:xlink="http://www.w3.org/1999/xlink" x="0px" y="0px"
	 viewBox="0 0 512 312" style="enable-background:new 0 0 512 312;" xml:space="preserve">
<style type="text/css">
	.st0{fill:#00E676;}
	.st1{fill:#ECFFDE;}
	.st2{fill:#FFFFFF;}
	.st3{fill:#3A3A3A;}
</style>
<g>
	<g>
		<path class="st0" d="M381.5,133.5c-14.2,0-25.7-11.5-25.7-25.7V72.3c0-3.8,3.1-6.9,6.9-6.9h37.5c3.8,0,6.9,3.1,6.9,6.9v35.5
			C407.1,122,395.6,133.5,381.5,133.5L381.5,133.5z"/>
	</g>
	<g>
		<path class="st0" d="M400.2,65.4h-5.5c3.8,0,6.9,3.1,6.9,6.9v35.5c0,13.3-10,24.2-22.9,25.5c0.9,0.1,1.8,0.1,2.7,0.1
			c14.2,0,25.7-11.5,25.7-25.7V72.3C407.1,68.5,404,65.4,400.2,65.4L400.2,65.4z"/>
	</g>
	<g>
		<g>
			<path class="st1" d="M381.5,72.9c-9.7,0-16.6,2.6-19.5,4c-1,0.4-1.6,1.4-1.6,2.5v23.6c0,1,0.6,1.9,1.5,2.4
				c2.9,1.5,9.8,4.5,19.6,4.5c9.7,0,16.6-2.6,19.5-4c1-0.4,1.6-1.4,1.6-2.5V79.8c0-1-0.6-1.9-1.5-2.4
				C398.2,75.9,391.3,72.9,381.5,72.9L381.5,72.9z"/>
		</g>
		<g>
			<g>
				<path class="st1" d="M402.5,100.6V82.1c0-1.4-1.1-2.6-2.6-2.6h-37c-1.4,0-2.6,1.1-2.6,2.6v18.5c0,1.4,1.1,2.6,2.6,2.6h37
					C401.4,103.2,402.5,102,402.5,100.6z"/>
			</g>
		</g>
		<g>
			<path class="st1" d="M400,79.6h-5.5c1.4,0,2.6,1.1,2.6,2.6v18.5c0,1.4-1.1,2.6-2.6,2.6h5.5c1.4,0,2.6-1.1,2.6-2.6V82.1
				C402.5,80.7,401.4,79.6,400,79.6z"/>
		</g>
	</g>
	<g>
		<g>
			<g>
				<path class="st2" d="M375,116.2c-0.6,0-1,0.5-1,1v6.9c0,0.6,0.5,1,1,1s1-0.5,1-1v-6.9C376.1,116.7,375.6,116.2,375,116.2z"/>
			</g>
			<g>
				<path class="st2" d="M387.9,116.2c-0.6,0-1,0.5-1,1v6.9c0,0.6,0.5,1,1,1s1-0.5,1-1v-6.9C388.9,116.7,388.5,116.2,387.9,116.2z"
					/>
			</g>
			<g>
				<path class="st2" d="M381.5,116.2c-0.6,0-1,0.5-1,1v9.7c0,0.6,0.5,1,1,1s1-0.5,1-1v-9.7C382.6,116.7,382.1,116.2,381.5,116.2z"
					/>
			</g>
		</g>
		<g>
			<path class="st2" d="M398.3,83.6c-0.4-0.4-1.1-0.4-1.5,0l-14.5,14.5c-0.9,0.9,0.5,2.4,1.5,1.5l14.5-14.5
				C398.7,84.7,398.7,84,398.3,83.6L398.3,83.6z"/>
		</g>
		<g>
			<path class="st2" d="M396.8,90.6l-7.6,7.6c-0.9,0.9,0.5,2.4,1.5,1.5l7.6-7.6C399.2,91.1,397.7,89.6,396.8,90.6z"/>
		</g>
		<g>
			<path class="st2" d="M396.8,96.8l-1.4,1.4c-0.9,0.9,0.5,2.4,1.5,1.5l1.4-1.4C399.2,97.3,397.7,95.9,396.8,96.8z"/>
		</g>
	</g>
</g>
<g>
	<path class="st3" d="M34.5,186c0,2.6-0.3,4.8-0.9,6.9c-0.6,2-1.5,3.7-2.5,5c-1.2,1.6-2.6,2.7-4.1,3.3c-1.5,0.7-3.4,1-5.7,1H7.6
		v-52.9h12.2c2.5,0,4.4,0.1,5.6,0.4c1.2,0.3,2.3,0.9,3.5,1.9c1.2,1,2.1,2.4,2.7,4.1c0.6,1.7,0.9,3.7,0.9,5.9c0,2.6-0.4,4.8-1.2,6.8
		c-0.8,2-1.9,3.5-3.4,4.6v0.3c2.1,0.7,3.7,2.1,4.9,4.3C33.9,179.6,34.5,182.5,34.5,186z M24.1,164.3c0-0.9-0.1-1.8-0.4-2.6
		c-0.3-0.9-0.7-1.5-1.4-2c-0.6-0.4-1.3-0.6-2.2-0.6c-0.9,0-2.1-0.1-3.7-0.1h-0.8v11.2h1.3c1.3,0,2.4,0,3.3-0.1
		c0.9-0.1,1.6-0.3,2.1-0.7c0.7-0.5,1.2-1.3,1.4-2.1S24.1,165.4,24.1,164.3z M26.1,185.8c0-1.7-0.2-3-0.6-3.9c-0.4-0.9-1-1.6-2-2
		c-0.6-0.3-1.5-0.5-2.6-0.5c-1.1,0-2.3,0-3.5,0h-1.8v13.2h0.6c2.3,0,3.9,0,4.9,0c1,0,1.9-0.3,2.7-0.9c0.8-0.6,1.4-1.4,1.7-2.4
		C25.9,188.2,26.1,187.1,26.1,185.8z"/>
	<path class="st3" d="M65.7,184.6H48.3c0.1,3.1,0.8,5.5,2.1,7.2c1.3,1.7,3.2,2.5,5.8,2.5c1.6,0,3.2-0.5,4.7-1.5c1.5-1,2.7-2,3.6-3.1
		h0.8V200c-1.7,1.2-3.3,2-4.9,2.5c-1.5,0.5-3.2,0.8-5.1,0.8c-4.8,0-8.4-1.8-11-5.4c-2.5-3.6-3.8-8.7-3.8-15.4
		c0-6.6,1.2-11.8,3.6-15.7c2.4-3.9,5.7-5.8,9.9-5.8c3.9,0,6.8,1.6,8.7,4.9c1.9,3.3,2.9,8,2.9,14.2V184.6z M58.1,177.1
		c0-2.7-0.4-4.7-1.2-6c-0.7-1.4-1.9-2-3.5-2c-1.5,0-2.7,0.6-3.6,1.9c-0.9,1.3-1.5,3.3-1.6,6.1H58.1z"/>
	<path class="st3" d="M97.1,202.2h-7.6v-19.8c0-1.6,0-3.2-0.1-4.8c-0.1-1.6-0.3-2.8-0.5-3.5c-0.3-0.9-0.7-1.5-1.2-1.9
		c-0.5-0.4-1.3-0.6-2.3-0.6c-0.7,0-1.4,0.2-2.1,0.6c-0.7,0.4-1.5,1-2.3,1.8v28.3h-7.6v-39.9h7.6v4.4c1.4-1.8,2.6-3.1,3.9-4.1
		c1.2-0.9,2.6-1.4,4.1-1.4c2.6,0,4.6,1.3,6,3.8c1.4,2.5,2.2,6.3,2.2,11.3V202.2z"/>
	<path class="st3" d="M129.3,197.6c0,3.7-0.3,6.9-1,9.5c-0.6,2.6-1.5,4.6-2.7,6c-1.1,1.5-2.5,2.5-4.1,3.2c-1.6,0.7-3.4,1-5.5,1
		c-1.6,0-3.3-0.2-4.9-0.5c-1.6-0.3-3-0.7-4.2-1.2v-10h0.9c0.9,0.6,2.1,1.2,3.4,1.7c1.3,0.5,2.5,0.8,3.6,0.8c1.4,0,2.6-0.2,3.4-0.7
		c0.9-0.4,1.6-1.1,2-1.9c0.4-0.8,0.8-1.7,1-2.9c0.2-1.2,0.3-2.6,0.3-4.3v-0.7c-0.9,1.3-1.9,2.3-3,3c-1.1,0.7-2.4,1.1-3.7,1.1
		c-3.3,0-5.9-1.7-7.7-5c-1.8-3.4-2.7-8.5-2.7-15.4c0-3.3,0.3-6.1,0.8-8.5c0.5-2.4,1.3-4.5,2.3-6.3c0.9-1.7,2.1-3,3.4-3.9
		c1.4-0.9,2.7-1.4,4.2-1.4c1.3,0,2.4,0.3,3.5,0.8c1,0.5,2,1.2,2.9,2.1l0.3-1.8h7.4V197.6z M121.7,189.6v-18.1
		c-0.4-0.3-1-0.6-1.6-0.7c-0.6-0.2-1.2-0.3-1.7-0.3c-2,0-3.5,1-4.5,2.9c-1,1.9-1.5,4.6-1.5,8.1c0,3.8,0.4,6.5,1.3,8
		c0.9,1.5,2.1,2.3,3.8,2.3c0.8,0,1.5-0.2,2.2-0.6C120.4,190.8,121.1,190.3,121.7,189.6z"/>
	<path class="st3" d="M163.9,202.2H155l-6.7-17.4l-2.1,4.3v13.1h-7.6v-55.3h7.6v33l8.2-17.6h8.8l-8.5,17.2L163.9,202.2z"/>
	<path class="st3" d="M193.3,184.6h-17.4c0.1,3.1,0.8,5.5,2.1,7.2c1.3,1.7,3.2,2.5,5.8,2.5c1.6,0,3.2-0.5,4.7-1.5
		c1.5-1,2.7-2,3.6-3.1h0.8V200c-1.7,1.2-3.3,2-4.9,2.5c-1.5,0.5-3.2,0.8-5.1,0.8c-4.8,0-8.4-1.8-11-5.4c-2.5-3.6-3.8-8.7-3.8-15.4
		c0-6.6,1.2-11.8,3.6-15.7c2.4-3.9,5.7-5.8,9.9-5.8c3.9,0,6.8,1.6,8.7,4.9c1.9,3.3,2.9,8,2.9,14.2V184.6z M185.7,177.1
		c0-2.7-0.4-4.7-1.2-6c-0.7-1.4-1.9-2-3.5-2c-1.5,0-2.7,0.6-3.6,1.9c-0.9,1.3-1.5,3.3-1.6,6.1H185.7z"/>
	<path class="st3" d="M208.4,202.2h-7.6v-55.3h7.6V202.2z"/>
	<path class="st3" d="M257.8,202.2h-22.7v-52.9h8.1V192h14.6V202.2z"/>
	<path class="st3" d="M278.8,198c-0.4,0.5-0.9,1.1-1.5,1.9c-0.6,0.7-1.2,1.3-1.7,1.7c-0.7,0.6-1.5,1-2.3,1.3
		c-0.8,0.3-1.7,0.4-2.6,0.4c-2.3,0-4.1-1.2-5.7-3.5c-1.5-2.3-2.3-5.3-2.3-9c0-2.9,0.4-5.3,1.2-7.1c0.8-1.8,1.9-3.3,3.3-4.4
		c1.4-1.1,3.2-1.8,5.2-2.3c2.1-0.4,4.2-0.8,6.5-1v-0.2c0-2.2-0.5-3.7-1.6-4.6c-1.1-0.8-2.6-1.3-4.7-1.3c-1.3,0-2.6,0.4-4,1.1
		c-1.4,0.7-2.4,1.3-3.1,1.7h-0.7v-9.6c0.8-0.4,2.1-0.8,3.9-1.3c1.8-0.5,3.6-0.7,5.4-0.7c4.3,0,7.5,1.1,9.4,3.4
		c1.9,2.2,2.9,5.8,2.9,10.5v27.2h-7.5V198z M278.8,191.8v-8.3c-1,0.1-2.1,0.3-3.3,0.6c-1.2,0.2-2.1,0.5-2.7,0.9
		c-0.8,0.4-1.3,1-1.7,1.8c-0.4,0.8-0.6,1.8-0.6,3c0,0.8,0,1.5,0.1,2c0.1,0.5,0.3,1,0.6,1.5c0.3,0.5,0.7,0.8,1.2,1
		c0.5,0.2,1.2,0.3,2.1,0.3c0.8,0,1.5-0.3,2.3-0.8C277.6,193.3,278.3,192.6,278.8,191.8z"/>
	<path class="st3" d="M316.2,189.6c0,4.1-1.1,7.4-3.3,10c-2.2,2.5-5.2,3.8-9,3.8c-2.1,0-4-0.3-5.8-1c-1.7-0.7-3.1-1.4-4.1-2.2v-10.5
		h0.7c0.4,0.4,0.8,0.9,1.3,1.5c0.5,0.5,1.2,1.1,2.1,1.7c0.8,0.5,1.7,1,2.7,1.4c1,0.4,2.1,0.6,3.2,0.6c1.5,0,2.6-0.3,3.3-0.8
		c0.7-0.6,1.1-1.4,1.1-2.5c0-1-0.2-1.7-0.6-2.1s-1.2-0.9-2.4-1.3c-0.6-0.2-1.3-0.4-2.3-0.7c-1-0.2-1.8-0.6-2.6-0.9
		c-2.2-0.9-3.8-2.4-4.8-4.4c-1-2-1.6-4.5-1.6-7.5c0-3.8,1.1-7,3.2-9.6c2.2-2.5,5.1-3.8,8.9-3.8c1.8,0,3.5,0.3,5.1,0.9
		c1.6,0.6,2.9,1.3,3.8,1.9v10.1h-0.7c-1.1-1.3-2.4-2.4-3.9-3.2c-1.4-0.8-2.9-1.2-4.4-1.2c-1.2,0-2.3,0.3-3.1,0.9
		c-0.8,0.6-1.3,1.4-1.3,2.4c0,0.9,0.2,1.7,0.6,2.2c0.4,0.5,1.3,1,2.7,1.5c0.8,0.3,1.6,0.5,2.5,0.8s1.8,0.6,2.7,0.9
		c2,0.9,3.5,2.3,4.4,4.1C315.7,184.4,316.2,186.7,316.2,189.6z"/>
	<path class="st3" d="M367.7,186c0,2.6-0.3,4.8-0.9,6.9c-0.6,2-1.5,3.7-2.5,5c-1.2,1.6-2.6,2.7-4.1,3.3c-1.5,0.7-3.4,1-5.7,1h-13.7
		v-52.9H353c2.5,0,4.4,0.1,5.6,0.4c1.2,0.3,2.3,0.9,3.5,1.9c1.2,1,2.1,2.4,2.7,4.1c0.6,1.7,0.9,3.7,0.9,5.9c0,2.6-0.4,4.8-1.2,6.8
		c-0.8,2-1.9,3.5-3.4,4.6v0.3c2.1,0.7,3.7,2.1,4.9,4.3C367.1,179.6,367.7,182.5,367.7,186z M357.3,164.3c0-0.9-0.1-1.8-0.4-2.6
		c-0.3-0.9-0.7-1.5-1.4-2c-0.6-0.4-1.3-0.6-2.2-0.6c-0.9,0-2.1-0.1-3.7-0.1h-0.8v11.2h1.3c1.3,0,2.4,0,3.3-0.1
		c0.9-0.1,1.6-0.3,2.1-0.7c0.7-0.5,1.2-1.3,1.4-2.1C357.2,166.4,357.3,165.4,357.3,164.3z M359.3,185.8c0-1.7-0.2-3-0.6-3.9
		c-0.4-0.9-1-1.6-2-2c-0.6-0.3-1.5-0.5-2.6-0.5c-1.1,0-2.3,0-3.5,0h-1.8v13.2h0.6c2.3,0,3.9,0,4.9,0c1,0,1.9-0.3,2.7-0.9
		c0.8-0.6,1.4-1.4,1.7-2.4C359.1,188.2,359.3,187.1,359.3,185.8z"/>
	<path class="st3" d="M398.9,184.6h-17.4c0.1,3.1,0.8,5.5,2.1,7.2c1.3,1.7,3.2,2.5,5.8,2.5c1.6,0,3.2-0.5,4.7-1.5
		c1.5-1,2.7-2,3.6-3.1h0.8V200c-1.7,1.2-3.3,2-4.9,2.5c-1.5,0.5-3.2,0.8-5.1,0.8c-4.8,0-8.4-1.8-11-5.4c-2.5-3.6-3.8-8.7-3.8-15.4
		c0-6.6,1.2-11.8,3.6-15.7c2.4-3.9,5.7-5.8,9.9-5.8c3.9,0,6.8,1.6,8.7,4.9s2.9,8,2.9,14.2V184.6z M391.3,177.1c0-2.7-0.4-4.7-1.2-6
		c-0.7-1.4-1.9-2-3.5-2c-1.5,0-2.7,0.6-3.6,1.9c-0.9,1.3-1.5,3.3-1.6,6.1H391.3z"/>
	<path class="st3" d="M431.6,202.2h-8.9l-6.7-17.4l-2.1,4.3v13.1h-7.6v-55.3h7.6v33l8.2-17.6h8.8l-8.5,17.2L431.6,202.2z"/>
	<path class="st3" d="M452,198c-0.4,0.5-0.9,1.1-1.5,1.9c-0.6,0.7-1.2,1.3-1.7,1.7c-0.7,0.6-1.5,1-2.3,1.3c-0.8,0.3-1.7,0.4-2.6,0.4
		c-2.3,0-4.1-1.2-5.7-3.5c-1.5-2.3-2.3-5.3-2.3-9c0-2.9,0.4-5.3,1.2-7.1c0.8-1.8,1.9-3.3,3.3-4.4c1.4-1.1,3.2-1.8,5.2-2.3
		c2.1-0.4,4.2-0.8,6.5-1v-0.2c0-2.2-0.5-3.7-1.6-4.6c-1.1-0.8-2.6-1.3-4.7-1.3c-1.3,0-2.6,0.4-4,1.1c-1.4,0.7-2.4,1.3-3.1,1.7h-0.7
		v-9.6c0.8-0.4,2.1-0.8,3.9-1.3c1.8-0.5,3.6-0.7,5.4-0.7c4.3,0,7.5,1.1,9.4,3.4c1.9,2.2,2.9,5.8,2.9,10.5v27.2H452V198z M452,191.8
		v-8.3c-1,0.1-2.1,0.3-3.3,0.6c-1.2,0.2-2.1,0.5-2.7,0.9c-0.8,0.4-1.3,1-1.7,1.8c-0.4,0.8-0.6,1.8-0.6,3c0,0.8,0,1.5,0.1,2
		c0.1,0.5,0.3,1,0.6,1.5c0.3,0.5,0.7,0.8,1.2,1c0.5,0.2,1.2,0.3,2.1,0.3c0.8,0,1.5-0.3,2.3-0.8C450.7,193.3,451.4,192.6,452,191.8z"
		/>
	<path class="st3" d="M489.4,189.6c0,4.1-1.1,7.4-3.3,10c-2.2,2.5-5.2,3.8-9,3.8c-2.1,0-4-0.3-5.8-1c-1.7-0.7-3.1-1.4-4.1-2.2v-10.5
		h0.7c0.4,0.4,0.8,0.9,1.3,1.5c0.5,0.5,1.2,1.1,2.1,1.7c0.8,0.5,1.7,1,2.7,1.4c1,0.4,2.1,0.6,3.2,0.6c1.5,0,2.6-0.3,3.3-0.8
		c0.7-0.6,1.1-1.4,1.1-2.5c0-1-0.2-1.7-0.6-2.1c-0.4-0.4-1.2-0.9-2.4-1.3c-0.6-0.2-1.3-0.4-2.3-0.7c-1-0.2-1.8-0.6-2.6-0.9
		c-2.2-0.9-3.8-2.4-4.8-4.4c-1-2-1.6-4.5-1.6-7.5c0-3.8,1.1-7,3.2-9.6c2.2-2.5,5.1-3.8,8.9-3.8c1.8,0,3.5,0.3,5.1,0.9
		c1.6,0.6,2.9,1.3,3.8,1.9v10.1h-0.7c-1.1-1.3-2.4-2.4-3.9-3.2c-1.4-0.8-2.9-1.2-4.4-1.2c-1.2,0-2.3,0.3-3.1,0.9
		c-0.8,0.6-1.3,1.4-1.3,2.4c0,0.9,0.2,1.7,0.6,2.2c0.4,0.5,1.3,1,2.7,1.5c0.8,0.3,1.6,0.5,2.5,0.8s1.8,0.6,2.7,0.9
		c2,0.9,3.5,2.3,4.4,4.1C488.9,184.4,489.4,186.7,489.4,189.6z"/>
	<path class="st3" d="M504.4,156.6h-8.1v-9.7h8.1V156.6z M504.2,202.2h-7.6v-39.9h7.6V202.2z"/>
</g>
<g>
	<path class="st3" d="M94.5,130.8H64.7v-9h8.3V88.9h-8.3v-9h29.8v9h-8.3v32.9h8.3V130.8z"/>
	<path class="st3" d="M157.2,130.8h-12.4v-19.1c0-1.6-0.1-3.1-0.2-4.6c-0.2-1.5-0.4-2.7-0.8-3.4c-0.5-0.8-1.1-1.5-2-1.8
		c-0.9-0.4-2.1-0.6-3.7-0.6c-1.1,0-2.3,0.2-3.4,0.5c-1.2,0.4-2.4,0.9-3.7,1.7v27.2h-12.4V92.4h12.4v4.2c2.2-1.7,4.3-3,6.3-3.9
		c2-0.9,4.3-1.4,6.7-1.4c4.1,0,7.4,1.2,9.7,3.6c2.3,2.4,3.5,6,3.5,10.8V130.8z"/>
	<path class="st3" d="M219.9,130.8h-12.4v-4c-2.1,1.7-4.1,3-5.9,3.8c-1.8,0.8-4,1.2-6.4,1.2c-4.7,0-8.4-1.8-11.2-5.4
		c-2.8-3.6-4.2-8.5-4.2-14.6c0-3.3,0.5-6.2,1.4-8.7c0.9-2.5,2.2-4.7,3.9-6.5c1.5-1.7,3.4-3,5.6-4c2.2-0.9,4.4-1.4,6.6-1.4
		c2.3,0,4.2,0.2,5.7,0.7c1.5,0.5,3,1.1,4.5,1.9V77.6h12.4V130.8z M207.5,120.2v-18.9c-0.9-0.4-1.8-0.6-2.7-0.8
		c-1-0.2-1.8-0.2-2.6-0.2c-3.2,0-5.7,1-7.3,3c-1.6,2-2.4,4.8-2.4,8.4c0,3.8,0.6,6.5,1.9,8.2c1.3,1.7,3.4,2.6,6.2,2.6
		c1.1,0,2.3-0.2,3.5-0.6C205.5,121.5,206.6,120.9,207.5,120.2z"/>
	<path class="st3" d="M273.4,104.1h-1.1c-0.5-0.2-1.4-0.3-2.5-0.4c-1.2-0.1-2.1-0.1-2.9-0.1c-1.8,0-3.3,0.1-4.6,0.3
		c-1.3,0.2-2.8,0.6-4.3,1.2v25.7h-12.4V92.4h12.4V98c2.7-2.3,5.1-3.9,7.1-4.6c2-0.8,3.8-1.1,5.5-1.1c0.4,0,0.9,0,1.5,0
		c0.5,0,1,0.1,1.4,0.1V104.1z"/>
	<path class="st3" d="M307,86.9h-13v-9.3h13V86.9z M306.7,130.8h-12.4V92.4h12.4V130.8z"/>
</g>
</svg>
