<?xml version="1.0" encoding="utf-8"?>
<!-- Generator: Adobe Illustrator 23.0.0, SVG Export Plug-In . SVG Version: 6.00 Build 0)  -->
<svg version="1.1" id="Layer_1" xmlns="http://www.w3.org/2000/svg" xmlns:xlink="http://www.w3.org/1999/xlink" x="0px" y="0px"
	 viewBox="0 0 102 18" style="enable-background:new 0 0 102 18;" xml:space="preserve">
<style type="text/css">
	.st0{display:none;fill:#2B2F32;}
	.st1{display:none;fill:#EB0029;}
	.st2{display:none;fill:none;stroke:#BB3A2A;stroke-miterlimit:10;}
	.st3{display:none;fill:none;}
	.st4{fill:#00E676;}
</style>
<g>
	<path class="st0" d="M45.8,4.7c-0.9,0-1.7,0.8-1.7,1.7v0.1h3.3v9.8h2.3V6.5H53V4.7H45.8z M91.7,9.6h-0.8V6.5h0.8
		c1.2,0,2.5,0.1,2.5,1.5C94.2,9.5,92.9,9.6,91.7,9.6L91.7,9.6z M95.4,11.7c-0.2-0.5-0.6-1.1-1.2-1.2l0,0c1.4-0.1,2.4-1.3,2.4-2.7
		c0-3.2-3-3.1-5.5-3.1h-0.8c-0.9,0-1.7,0.8-1.7,1.7v9.9h2.3v-4.8h0.7c1,0,1.3,0.3,1.6,1.2l1.4,3.6h2.6L95.4,11.7L95.4,11.7z
		 M100.4,4.7c-0.9,0-1.7,0.8-1.7,1.7v9.9h2.3V4.7H100.4z M73.8,4.7c-0.9,0-1.7,0.8-1.7,1.7v3h-4.6V4.7h-0.6c-0.9,0-1.7,0.8-1.7,1.7
		v9.9h2.3v-5.1h4.6v5.1h2.3V4.7H73.8L73.8,4.7z M30.3,4.7c-0.9,0.1-1.7,0.8-2.1,1.7L26,13.5l0,0l-2.8-8.8h-2c-0.9,0-1.7,0.8-1.7,1.7
		v9.9h2.2V6.7l0,0l3.1,9.6H27l3.1-9.6l0,0v9.6h2.2V4.7H30.3L30.3,4.7z M37.5,11.8L39.2,7l0,0l1.7,4.8H37.5z M40.6,4.7h-1.2
		c-0.9,0.1-1.6,0.7-2,1.5l-0.1,0.2l-3.8,9.9h2.4l1-2.7h4.7l1,2.7h2.6C45.1,16.3,40.6,4.7,40.6,4.7z M56.2,11.8L57.9,7l0,0l1.7,4.8
		C59.6,11.8,56.2,11.8,56.2,11.8z M59.2,4.7H58c-0.9,0.1-1.6,0.7-2,1.5c0,0,0,0.1,0,0.2l-3.8,9.9h2.4l1-2.7h4.7l1,2.7h2.6L59.2,4.7z
		 M79.8,11.8L81.5,7l0,0l1.7,4.8H79.8z M82.8,4.7h-1.2c-0.9,0.1-1.6,0.7-2,1.5c0,0.1-0.1,0.1-0.1,0.2l-3.8,9.9h2.4l1-2.7h4.7l1,2.7
		h2.6L82.8,4.7z"/>
	<path class="st1" d="M15.8,8.6h-1c-0.3,0-0.6,0.2-0.7,0.6v0.1c0,0,0,0,0,0.1c-0.4,2.8-2.9,4.8-5.7,4.6c-2.8-0.3-5-2.7-4.8-5.5
		C3.7,5.6,6,3.3,8.8,3.3V1.7C8.8,1.3,8.5,1,8.1,1C4,1.4,0.9,5,1.2,9.1s3.7,7.3,7.9,7.2c4.1-0.1,7.4-3.5,7.4-7.7L15.8,8.6L15.8,8.6z"
		/>
	<path class="st1" d="M4.9,8.6c0,2.2,1.8,3.9,4,3.9s3.9-1.7,4-3.9h-1.6c-0.4,0-0.7,0.2-0.9,0.6c-0.3,0.8-1.2,1.2-2,1
		C7.5,9.9,7,9,7.3,8.1C7.5,7.5,8.1,7,8.8,7h7.7V5.4c0-0.4-0.3-0.7-0.7-0.7l0,0h-7C6.6,4.7,4.9,6.5,4.9,8.6"/>
</g>
<rect class="st2" width="102" height="18"/>
<rect x="-3" y="-26.1" class="st3" width="12.9" height="11.1"/>
<rect x="2.6" y="1" class="st4" width="3.2" height="15.6"/>
<rect x="7.3" y="1" class="st4" width="3.2" height="15.6"/>
<g>
	<path d="M16.2,6.9h-3.4v-1h1V2.1h-1v-1h3.4v1h-1v3.8h1V6.9z"/>
	<path d="M26.7,6.9h-1.4l-2.5-4v4h-1.4V1.1h1.8l2.1,3.3V1.1h1.4V6.9z"/>
	<path d="M37.6,4c0,0.5-0.1,1-0.4,1.5s-0.6,0.8-0.9,1c-0.3,0.2-0.6,0.3-0.9,0.4s-0.7,0.1-1.2,0.1h-2.1V1.1h2.1c0.5,0,0.9,0,1.2,0.1
		s0.6,0.2,0.9,0.3c0.4,0.2,0.7,0.6,0.9,1S37.6,3.4,37.6,4z M36.1,4c0-0.4-0.1-0.7-0.2-1s-0.4-0.5-0.7-0.6c-0.2-0.1-0.3-0.1-0.5-0.2
		s-0.4,0-0.7,0h-0.4v3.6H34c0.4,0,0.6,0,0.8,0s0.3-0.1,0.5-0.2c0.3-0.2,0.5-0.4,0.6-0.6S36.1,4.3,36.1,4z"/>
	<path d="M48.4,6.9h-1.8L45,4.7h-0.7v2.1h-1.5V1.1h2.5c0.3,0,0.6,0,0.9,0.1s0.5,0.1,0.7,0.3c0.2,0.1,0.4,0.3,0.5,0.5
		s0.2,0.5,0.2,0.8c0,0.4-0.1,0.8-0.3,1.1s-0.5,0.5-0.9,0.7L48.4,6.9z M46.1,2.8c0-0.1,0-0.3-0.1-0.4s-0.2-0.2-0.3-0.2
		c-0.1,0-0.2-0.1-0.4-0.1s-0.3,0-0.5,0h-0.5v1.6h0.5c0.2,0,0.4,0,0.6,0s0.3-0.1,0.4-0.2c0.1-0.1,0.2-0.2,0.2-0.3S46.1,3,46.1,2.8z"
		/>
	<path d="M56.2,6.9h-3.4v-1h1V2.1h-1v-1h3.4v1h-1v3.8h1V6.9z"/>
</g>
<g>
	<path d="M17,14.1c0,0.3-0.1,0.5-0.2,0.8c-0.1,0.2-0.3,0.4-0.5,0.6c-0.2,0.2-0.5,0.3-0.8,0.4c-0.3,0.1-0.6,0.1-1,0.1H12v-5.8h2.3
		c0.5,0,0.8,0,1,0s0.4,0.1,0.6,0.2c0.2,0.1,0.4,0.3,0.5,0.5c0.1,0.2,0.2,0.4,0.2,0.6c0,0.3-0.1,0.5-0.2,0.7s-0.4,0.4-0.6,0.5v0
		c0.4,0.1,0.7,0.2,0.9,0.5C16.9,13.4,17,13.7,17,14.1z M15.1,11.7c0-0.1,0-0.2-0.1-0.3c0-0.1-0.1-0.2-0.3-0.2
		c-0.1,0-0.2-0.1-0.4-0.1s-0.4,0-0.7,0h-0.1v1.2h0.2c0.2,0,0.4,0,0.6,0s0.3,0,0.4-0.1c0.1-0.1,0.2-0.1,0.3-0.2
		C15,12,15.1,11.9,15.1,11.7z M15.4,14.1c0-0.2,0-0.3-0.1-0.4c-0.1-0.1-0.2-0.2-0.4-0.2c-0.1,0-0.3-0.1-0.5-0.1c-0.2,0-0.4,0-0.6,0
		h-0.3v1.4h0.1c0.4,0,0.7,0,0.9,0c0.2,0,0.3,0,0.5-0.1c0.2-0.1,0.3-0.2,0.3-0.3C15.4,14.4,15.4,14.2,15.4,14.1z"/>
	<path d="M24.7,15.9h-4.2v-5.8h4.2v1.1H22v1h2.5v1.1H22v1.4h2.7V15.9z"/>
	<path d="M33.7,15.9h-1.4l-2.5-4v4h-1.4v-5.8h1.8l2.1,3.3v-3.3h1.4V15.9z"/>
	<path d="M42.7,15.6c-0.3,0.1-0.6,0.2-1,0.3C41.2,16,40.8,16,40.4,16c-1,0-1.8-0.3-2.3-0.8c-0.6-0.5-0.8-1.3-0.8-2.2
		c0-0.9,0.3-1.6,0.8-2.2c0.6-0.6,1.4-0.8,2.4-0.8c0.4,0,0.7,0,1.1,0.1c0.3,0.1,0.7,0.2,1.2,0.4v1.4h-0.2c-0.1-0.1-0.2-0.1-0.3-0.2
		c-0.1-0.1-0.3-0.2-0.4-0.3c-0.2-0.1-0.3-0.2-0.5-0.2c-0.2-0.1-0.4-0.1-0.6-0.1c-0.3,0-0.5,0-0.7,0.1s-0.4,0.2-0.6,0.4
		c-0.2,0.2-0.3,0.4-0.4,0.6c-0.1,0.2-0.1,0.5-0.1,0.8c0,0.6,0.2,1.1,0.5,1.5c0.3,0.3,0.8,0.5,1.5,0.5c0.1,0,0.1,0,0.2,0
		c0.1,0,0.1,0,0.2,0v-1.1H40v-1.1h2.7V15.6z"/>
	<path d="M51.9,15.9H50l-1.7-2.3L47.9,14v1.9h-1.5v-5.8h1.5v2.6l2.1-2.6h1.7l-2.3,2.7L51.9,15.9z"/>
	<path d="M59.2,15.9H55v-5.8h4.2v1.1h-2.7v1H59v1.1h-2.5v1.4h2.7V15.9z"/>
	<path d="M67.1,15.9h-4.2v-5.8h1.5v4.7h2.7V15.9z"/>
	<path d="M79.7,15.9h-4.2v-5.8H77v4.7h2.7V15.9z"/>
	<path d="M88.4,15.9h-1.5l-0.4-1.2h-2.2l-0.4,1.2h-1.5l2.1-5.8h1.7L88.4,15.9z M86.1,13.7l-0.7-2.1l-0.7,2.1H86.1z"/>
	<path d="M96.3,14.1c0,0.6-0.2,1-0.7,1.4c-0.5,0.4-1.1,0.5-2,0.5c-0.5,0-0.9,0-1.3-0.1c-0.4-0.1-0.7-0.2-1-0.3v-1.4h0.2
		c0.3,0.2,0.7,0.4,1,0.6s0.8,0.2,1.1,0.2c0.1,0,0.2,0,0.4,0s0.3,0,0.4-0.1c0.1,0,0.2-0.1,0.3-0.2s0.1-0.2,0.1-0.3
		c0-0.1-0.1-0.2-0.2-0.3c-0.1-0.1-0.3-0.2-0.5-0.2c-0.2-0.1-0.5-0.1-0.7-0.1c-0.2,0-0.5-0.1-0.7-0.2c-0.5-0.2-0.8-0.4-1.1-0.6
		c-0.2-0.3-0.3-0.6-0.3-1c0-0.5,0.2-1,0.7-1.3c0.5-0.3,1.1-0.5,1.9-0.5c0.4,0,0.8,0,1.1,0.1s0.7,0.2,1,0.3v1.3h-0.2
		c-0.2-0.2-0.5-0.3-0.9-0.5c-0.3-0.1-0.7-0.2-1-0.2c-0.1,0-0.2,0-0.4,0c-0.1,0-0.2,0-0.4,0.1c-0.1,0-0.2,0.1-0.3,0.2
		c-0.1,0.1-0.1,0.2-0.1,0.3c0,0.2,0.1,0.3,0.2,0.4s0.3,0.2,0.7,0.2c0.2,0,0.4,0.1,0.6,0.1c0.2,0,0.4,0.1,0.6,0.2
		c0.4,0.1,0.8,0.3,1,0.6C96.2,13.4,96.3,13.7,96.3,14.1z"/>
</g>
</svg>
