<?xml version="1.0" encoding="utf-8"?>
<!-- Generator: Adobe Illustrator 23.0.0, SVG Export Plug-In . SVG Version: 6.00 Build 0)  -->
<svg version="1.1" id="Layer_1" xmlns="http://www.w3.org/2000/svg" xmlns:xlink="http://www.w3.org/1999/xlink" x="0px" y="0px"
	 viewBox="0 0 25 25" style="enable-background:new 0 0 25 25;" xml:space="preserve">
<style type="text/css">
	.st0{fill:#3A3A3A;}
</style>
<path class="st0" d="M22,3.8H3c-1.2,0-2.1,1-2.1,2.1C0.9,7.1,1.9,8,3,8h19c1.2,0,2.1-1,2.1-2.1C24.2,4.7,23.2,3.8,22,3.8z"/>
<path class="st0" d="M22,10.4H3c-1.2,0-2.1,1-2.1,2.1c0,1.2,1,2.1,2.1,2.1h19c1.2,0,2.1-1,2.1-2.1C24.2,11.3,23.2,10.4,22,10.4
	L22,10.4z"/>
<path class="st0" d="M22,16.9H3c-1.2,0-2.1,1-2.1,2.1c0,1.2,1,2.1,2.1,2.1h19c1.2,0,2.1-1,2.1-2.1C24.2,17.9,23.2,16.9,22,16.9z"/>
</svg>
