<?xml version="1.0" encoding="utf-8"?>
<!-- Generator: Adobe Illustrator 23.0.0, SVG Export Plug-In . SVG Version: 6.00 Build 0)  -->
<svg version="1.1" id="Capa_1" xmlns="http://www.w3.org/2000/svg" xmlns:xlink="http://www.w3.org/1999/xlink" x="0px" y="0px"
	 viewBox="0 0 18 18" style="enable-background:new 0 0 18 18;" xml:space="preserve">
<style type="text/css">
	.st0{fill:#00E676;}
</style>
<path class="st0" d="M11.6,8.8h-1.2V5.3h1.2c0.3,0,0.6,0.3,0.6,0.6v2.3C12.2,8.5,11.9,8.8,11.6,8.8z"/>
<g>
	<path class="st0" d="M15.8,10.5C17.1,9.9,18,8.6,18,7.1c0-2.1-1.7-3.8-3.8-3.8c-0.2,0-0.4,0-0.6,0.1c-0.1-0.4-0.4-0.6-0.8-0.6h-1.2
		c-0.8,0-1.5,0.7-1.5,1.5V10c0,0.6,0.4,1.2,1,1.4c-0.5,0.6-0.7,1.3-0.7,2.1v1.5l-2.6-2.2V8.8c0-0.5-0.4-0.9-0.9-0.9V5
		c0-0.8-0.7-1.5-1.5-1.5H4.6V3H3.3v0.6h0.8v0.6H2.9v0H2.3v0.6h2.3V4.1h0.9C6,4.1,6.4,4.5,6.4,5v2.9c-0.5,0-0.9,0.4-0.9,0.9v4.8v2.2
		c0,0.5,0.4,0.9,0.9,0.9H7c0.4,0,0.7-0.2,0.8-0.5l1.8,1.5c0.3,0.3,0.7,0.4,1.2,0.4c0,0,0,0,0,0l0,0h6.7v-4.6
		C17.4,12.2,16.8,11.1,15.8,10.5z M13.6,5.6H14l0.3,0.9h0.2c0.3,0,0.6,0.3,0.6,0.6c0,0.3-0.3,0.6-0.6,0.6h-0.3v0.3
		c0,0.8,0.4,1.6,1.1,2l0.1,0.1c-0.4,0.2-0.8,0.3-1.2,0.3c-0.2,0-0.4,0-0.6-0.1L13.6,5.6L13.6,5.6z M17.4,7.1c0,1.1-0.5,2-1.4,2.6
		l-0.4-0.2c-0.5-0.3-0.8-0.7-0.8-1.3c0.5-0.1,0.8-0.6,0.8-1.1c0-0.6-0.4-1-0.9-1.1L14.4,5h-0.8V3.9c0.2,0,0.4-0.1,0.6-0.1
		C16,3.9,17.4,5.3,17.4,7.1z M10.7,10V9.1h0.9c0.5,0,0.9-0.4,0.9-0.9V7.9h-0.6v0.3c0,0.2-0.1,0.3-0.3,0.3h-0.9V5.6h0.9
		c0.2,0,0.3,0.1,0.3,0.3v1.5h0.6V5.9c0-0.5-0.4-0.9-0.9-0.9h-0.9V4.2c0-0.5,0.4-0.9,0.9-0.9h1.2c0.2,0,0.3,0.1,0.3,0.3v7
		c0,0.2-0.1,0.3-0.3,0.3h-1.2C11.1,10.8,10.7,10.4,10.7,10z M7.3,12.3c-0.1,0-0.2-0.1-0.4-0.1H6.8c-0.3,0-0.5,0.1-0.7,0.2V9.7h1.2
		V12.3L7.3,12.3z M6.4,8.5H7c0.2,0,0.3,0.1,0.3,0.3v0.3H6.1V8.8C6.1,8.6,6.2,8.5,6.4,8.5z M7.3,15.8c0,0.2-0.1,0.3-0.3,0.3H6.4
		c-0.2,0-0.3-0.1-0.3-0.3v-1.1l1.2,1L7.3,15.8L7.3,15.8z M9.9,17.2l-3.6-3.1c-0.2-0.1-0.2-0.3-0.2-0.5c0-0.4,0.3-0.7,0.7-0.7h0.1
		c0.2,0,0.3,0.1,0.5,0.2l3.8,3.2l0.4-0.4l-0.4-0.3l1.4-1.4l1,1l-2,2C11.1,17.6,10.4,17.6,9.9,17.2z M13.9,14.8l-1-1l1.5-1.5
		c0.1-0.1,0.3-0.2,0.5-0.2c0.4,0,0.7,0.3,0.7,0.7c0,0.2-0.1,0.4-0.2,0.5L13.9,14.8z M16.8,17.5H12l3.8-3.8c0.3-0.3,0.4-0.6,0.4-0.9
		c0-0.7-0.6-1.3-1.3-1.3c-0.3,0-0.7,0.1-0.9,0.4l-3,3v-1.3c0-0.8,0.3-1.5,0.8-2h0.9c0.4,0,0.7-0.3,0.8-0.6c0.2,0,0.4,0.1,0.6,0.1
		c0.3,0,0.5,0,0.8-0.1c1.1,0.4,1.8,1.5,1.8,2.7L16.8,17.5L16.8,17.5z"/>
	<rect x="11.3" y="3.9" class="st0" width="0.6" height="0.6"/>
</g>
<polygon class="st0" points="2.6,4.5 4.4,2.5 3.9,1.5 1.7,2.4 1.4,0.1 0,0.1 0,8.8 1.4,8.8 1.7,7.1 3.9,8 4.4,7 2.6,4.9 "/>
<path class="st0" d="M0,18.1h2.3V8.5H0V18.1z M0.6,9.1h1.2v8.4H0.6V9.1z"/>
</svg>
